<svg width="24" height="25" viewBox="0 0 24 25" fill="none" xmlns="http://www.w3.org/2000/svg">
<path fill-rule="evenodd" clip-rule="evenodd" d="M11.9739 0.996094C5.36332 0.996094 0 6.35941 0 12.97C0 19.5806 5.36332 24.9439 11.9739 24.9439C18.5715 24.9439 23.9478 19.5806 23.9478 12.97C23.9478 6.35941 18.5715 0.996094 11.9739 0.996094ZM19.8827 6.51507C21.3569 8.3105 22.1728 10.5562 22.1946 12.8792C21.8574 12.8143 18.4807 12.1258 15.0781 12.5549C14.9993 12.3853 14.9345 12.2037 14.8566 12.0221C14.645 11.5226 14.4201 11.0288 14.1821 10.5413C17.9479 9.00864 19.6622 6.80145 19.8827 6.51507ZM11.9739 2.76324C14.5713 2.76324 16.9481 3.73612 18.7531 5.33364C18.5715 5.59308 17.0259 7.65858 13.3898 9.02161C11.7135 5.94431 9.85752 3.4238 9.57115 3.03465C10.3588 2.85074 11.1651 2.75932 11.9739 2.76225V2.76324ZM7.62339 3.72315C7.8958 4.08736 9.71384 6.61984 11.4151 9.63228C6.63554 10.9055 2.41474 10.8796 1.96073 10.8796C2.62328 7.71047 4.76662 5.07421 7.62339 3.72315ZM1.74021 12.983V12.6717C2.18225 12.6846 7.14244 12.7495 12.2473 11.2168C12.5457 11.7886 12.8181 12.3723 13.0775 12.957C12.9478 12.996 12.8051 13.0349 12.6754 13.0738C7.40287 14.7751 4.59698 19.4239 4.36349 19.8141C2.67458 17.9397 1.74001 15.506 1.74021 12.983ZM11.9739 23.2037C9.70088 23.2073 7.49232 22.4484 5.70158 21.0484C5.88318 20.6712 7.96066 16.6709 13.7271 14.6583C13.753 14.6454 13.767 14.6454 13.792 14.6324C15.2338 18.3593 15.8175 21.4894 15.9742 22.3855C14.7399 22.9183 13.3898 23.2037 11.9739 23.2037ZM17.6755 21.4505C17.5717 20.8269 17.0259 17.8404 15.6878 14.1644C18.8958 13.6585 21.7007 14.4897 22.052 14.6064C21.6099 17.4502 19.9735 19.9049 17.6755 21.4505Z" fill="#949494"/>
</svg>
