<svg width="24" height="25" viewBox="0 0 24 25" fill="none" xmlns="http://www.w3.org/2000/svg">
<path fill-rule="evenodd" clip-rule="evenodd" d="M11.9739 0.77832C5.36332 0.77832 0 6.14164 0 12.7522C0 19.3628 5.36332 24.7261 11.9739 24.7261C18.5715 24.7261 23.9478 19.3628 23.9478 12.7522C23.9478 6.14164 18.5715 0.77832 11.9739 0.77832ZM19.8827 6.2973C21.3569 8.09272 22.1728 10.3384 22.1946 12.6614C21.8574 12.5966 18.4807 11.9081 15.0781 12.3371C14.9993 12.1675 14.9345 11.9859 14.8566 11.8043C14.645 11.3048 14.4201 10.811 14.1821 10.3235C17.9479 8.79086 19.6622 6.58367 19.8827 6.2973ZM11.9739 2.54547C14.5713 2.54547 16.9481 3.51835 18.7531 5.11587C18.5715 5.37531 17.0259 7.44081 13.3898 8.80384C11.7135 5.72654 9.85752 3.20603 9.57115 2.81688C10.3588 2.63297 11.1651 2.54155 11.9739 2.54447V2.54547ZM7.62339 3.50538C7.8958 3.86959 9.71384 6.40207 11.4151 9.41451C6.63554 10.6877 2.41474 10.6618 1.96073 10.6618C2.62328 7.49269 4.76662 4.85644 7.62339 3.50538ZM1.74021 12.7652V12.4539C2.18225 12.4669 7.14244 12.5317 12.2473 10.9991C12.5457 11.5708 12.8181 12.1545 13.0775 12.7393C12.9478 12.7782 12.8051 12.8171 12.6754 12.856C7.40287 14.5573 4.59698 19.2062 4.36349 19.5963C2.67458 17.7219 1.74001 15.2883 1.74021 12.7652ZM11.9739 22.9859C9.70088 22.9895 7.49232 22.2306 5.70158 20.8306C5.88318 20.4535 7.96066 16.4532 13.7271 14.4406C13.753 14.4276 13.767 14.4276 13.792 14.4146C15.2338 18.1415 15.8175 21.2717 15.9742 22.1677C14.7399 22.7006 13.3898 22.9859 11.9739 22.9859ZM17.6755 21.2328C17.5717 20.6091 17.0259 17.6226 15.6878 13.9466C18.8958 13.4407 21.7007 14.2719 22.052 14.3887C21.6099 17.2325 19.9735 19.6871 17.6755 21.2328Z" fill="#6A6A6A"/>
</svg>
