<svg width="18" height="17" viewBox="0 0 18 17" fill="none" xmlns="http://www.w3.org/2000/svg">
<path d="M5.9147 1.0542C5.86155 1.02179 5.81875 0.974947 5.79134 0.919156C5.76392 0.863364 5.75301 0.800937 5.75989 0.739187C5.76677 0.677436 5.79116 0.618919 5.83019 0.57049C5.86921 0.522062 5.92127 0.485726 5.98027 0.465741C7.17481 0.0536484 8.44648 -0.0875533 9.70267 0.0524208C10.9588 0.192395 12.1679 0.61002 13.2418 1.27488C13.2817 1.29866 13.3162 1.33065 13.3427 1.36872C13.3693 1.40679 13.3875 1.45007 13.396 1.49568C13.4046 1.5413 13.4033 1.5882 13.3922 1.63327C13.3812 1.67834 13.3606 1.72055 13.3319 1.75709C12.379 2.96294 11.2157 3.98738 9.89788 4.78114C8.83137 3.28749 7.47733 2.02055 5.9147 1.0542ZM8.72587 5.39412C7.52592 3.76826 5.95187 2.45365 4.1362 1.56094C4.08259 1.53672 4.02376 1.52627 3.96506 1.53056C3.90636 1.53484 3.84968 1.55371 3.80017 1.58546C2.3311 2.64062 1.23277 4.13055 0.661169 5.84364C0.647645 5.88712 0.643375 5.93294 0.648635 5.97816C0.653895 6.02338 0.668568 6.06701 0.691715 6.10625C0.714861 6.14549 0.74597 6.17948 0.78305 6.20603C0.82013 6.23259 0.862363 6.25113 0.907045 6.26047C1.7635 6.44478 2.63715 6.53793 3.51332 6.53835C5.31373 6.54062 7.09283 6.15008 8.72587 5.39412ZM17.2331 7.57634C17.0235 5.68055 16.1806 3.91016 14.84 2.54988C14.8069 2.51773 14.7675 2.49273 14.7242 2.47645C14.681 2.46017 14.6349 2.45296 14.5887 2.45526C14.5426 2.45756 14.4974 2.46933 14.456 2.48983C14.4146 2.51033 14.3779 2.53912 14.3482 2.5744C13.3118 3.89336 12.0425 5.01238 10.6027 5.87633C11.0518 6.65348 11.4251 7.47182 11.7174 8.32009C12.8903 8.00379 14.1002 7.84438 15.3153 7.84605C15.8357 7.84725 16.3555 7.87726 16.8725 7.93595C16.9212 7.9411 16.9703 7.93534 17.0164 7.91909C17.0625 7.90283 17.1044 7.87651 17.139 7.84203C17.1735 7.80755 17.1999 7.76579 17.2162 7.71982C17.2325 7.67385 17.2383 7.62482 17.2331 7.57634ZM12.078 9.57875C12.3188 10.6104 12.4398 11.6662 12.4386 12.7254C12.438 13.7372 12.3253 14.7459 12.1026 15.7331C12.088 15.7938 12.0911 15.8574 12.1116 15.9164C12.1321 15.9754 12.1691 16.0273 12.2182 16.066C12.2673 16.1046 12.3265 16.1285 12.3888 16.1347C12.4511 16.1409 12.5139 16.1291 12.5697 16.1009C13.8134 15.4806 14.8861 14.5665 15.6946 13.4384C16.5031 12.3102 17.0228 11.002 17.2086 9.62778C17.2143 9.5848 17.2114 9.54111 17.2 9.49925C17.1887 9.4574 17.1691 9.41822 17.1424 9.38399C17.1157 9.34976 17.0824 9.32117 17.0445 9.29988C17.0066 9.2786 16.9649 9.26504 16.9217 9.25999C16.3894 9.18746 15.8526 9.15196 15.3153 9.15374C14.2221 9.15239 13.1336 9.2953 12.078 9.57875ZM10.4634 8.72874C10.2037 7.95426 9.86303 7.20913 9.44711 6.50566C7.59488 7.39021 5.56698 7.8483 3.51332 7.84605C2.55188 7.84553 1.59315 7.74417 0.652974 7.54364C0.607432 7.53422 0.560401 7.53457 0.515005 7.54467C0.469609 7.55477 0.426888 7.57438 0.389678 7.60221C0.352469 7.63004 0.321624 7.66545 0.299192 7.70608C0.27676 7.74671 0.263255 7.79164 0.259573 7.83788C0.243182 8.05582 0.234986 8.2765 0.234986 8.4999C0.23457 9.66367 0.474496 10.8151 0.939814 11.8823C1.40513 12.9496 2.08587 13.9098 2.93961 14.7033C2.97479 14.737 3.01724 14.7622 3.0637 14.777C3.11017 14.7918 3.15941 14.7958 3.20767 14.7887C3.25592 14.7816 3.30191 14.7636 3.3421 14.736C3.3823 14.7085 3.41563 14.6721 3.43956 14.6297C5.03871 11.9225 7.5166 9.84075 10.4634 8.72874ZM4.47223 15.4634C4.45037 15.5009 4.43619 15.5423 4.43054 15.5853C4.42489 15.6283 4.42787 15.672 4.43931 15.7138C4.45075 15.7556 4.47042 15.7948 4.49718 15.829C4.52394 15.8631 4.55725 15.8917 4.59517 15.9129C5.86537 16.6282 7.29991 17.0028 8.75866 16.9999C9.25613 17.0021 9.75273 16.9583 10.2421 16.8691C10.2987 16.8598 10.3517 16.835 10.3951 16.7975C10.4385 16.76 10.4706 16.7112 10.488 16.6566C10.9131 15.3894 11.129 14.0617 11.1273 12.7254C11.1268 11.8044 11.0251 10.8863 10.824 9.9874C8.13934 11.0318 5.89662 12.9653 4.47223 15.4634Z" fill="#949494"/>
</svg>
