<svg width="28" height="26" viewBox="0 0 28 26" fill="none" xmlns="http://www.w3.org/2000/svg">
<path d="M27.508 10.2867C28.1643 10.9915 28.1643 12.139 27.508 12.8437L18.4214 22.6018C17.7652 23.3066 16.6967 23.3066 16.0404 22.6018L6.95471 12.8437C6.29741 12.139 6.29741 10.9915 6.95471 10.2867L16.0404 0.529537C16.6967 -0.176345 17.7652 -0.176345 18.4214 0.529537L27.508 10.2867Z" fill="#D2D9FF"/>
<path d="M21.0463 12.4897C21.7025 13.1945 21.7025 14.3419 21.0463 15.0467L11.9597 24.8048C11.3035 25.5095 10.235 25.5095 9.5787 24.8048L0.492978 15.0467C-0.164326 14.3419 -0.164326 13.1945 0.492978 12.4897L9.5787 2.73249C10.235 2.02661 11.3035 2.02661 11.9597 2.73249L21.0463 12.4897Z" fill="#3F3F3F"/>
</svg>
