<svg width="26" height="26" viewBox="0 0 26 26" fill="none" xmlns="http://www.w3.org/2000/svg">
<path fill-rule="evenodd" clip-rule="evenodd" d="M9.6367 9.04H14.4544V11.4398C15.1484 10.0596 16.9281 8.81949 19.6016 8.81949C24.7267 8.81949 25.9435 11.5669 25.9435 16.6077V25.9435H20.7548V17.7557C20.7548 14.8851 20.0608 13.2662 18.294 13.2662C15.8437 13.2662 14.8254 15.0109 14.8254 17.7544V25.9435H9.6367V9.04ZM0.739389 25.723H5.92808V8.81949H0.739389V25.723ZM6.67137 3.30779C6.67156 3.7427 6.58531 4.17331 6.41762 4.5746C6.24994 4.97588 6.00417 5.33983 5.69459 5.6453C5.06728 6.26875 4.21816 6.61773 3.33374 6.61559C2.45087 6.61499 1.60371 6.26691 0.975475 5.6466C0.667022 5.34009 0.422082 4.97573 0.254692 4.5744C0.0873017 4.17306 0.000751235 3.74264 0 3.30779C0 2.42961 0.350237 1.58904 0.976772 0.968989C1.60446 0.347848 2.45197 -0.000388128 3.33503 3.24636e-07C4.21971 3.24636e-07 5.06806 0.34894 5.69459 0.968989C6.31983 1.58904 6.67137 2.42961 6.67137 3.30779Z" fill="#949494"/>
</svg>
