<svg width="27" height="27" viewBox="0 0 27 27" fill="none" xmlns="http://www.w3.org/2000/svg">
<path fill-rule="evenodd" clip-rule="evenodd" d="M10.2063 9.82272H15.024V12.2225C15.718 10.8423 17.4977 9.6022 20.1712 9.6022C25.2963 9.6022 26.5131 12.3496 26.5131 17.3904V26.7262H21.3244V18.5384C21.3244 15.6678 20.6304 14.0489 18.8636 14.0489C16.4133 14.0489 15.395 15.7936 15.395 18.5371V26.7262H10.2063V9.82272ZM1.30897 26.5057H6.49766V9.6022H1.30897V26.5057ZM7.24095 4.09051C7.24114 4.52542 7.15489 4.95603 6.9872 5.35731C6.81952 5.7586 6.57375 6.12255 6.26417 6.42802C5.63686 7.05147 4.78774 7.40045 3.90332 7.3983C3.02045 7.39771 2.17329 7.04962 1.54505 6.42931C1.2366 6.12281 0.991662 5.75845 0.824272 5.35711C0.656882 4.95577 0.570331 4.52535 0.56958 4.09051C0.56958 3.21232 0.919817 2.37175 1.54635 1.7517C2.17404 1.13056 3.02155 0.782327 3.90461 0.782715C4.78929 0.782715 5.63764 1.13165 6.26417 1.7517C6.88941 2.37175 7.24095 3.21232 7.24095 4.09051Z" fill="#6A6A6A"/>
</svg>
