<svg width="18" height="17" viewBox="0 0 18 17" fill="none" xmlns="http://www.w3.org/2000/svg">
<path fill-rule="evenodd" clip-rule="evenodd" d="M6.753 5.92365H9.9099V7.49615C10.3647 6.59175 11.5309 5.77915 13.2827 5.77915C16.6411 5.77915 17.4384 7.57945 17.4384 10.8825V17H14.0384V11.6348C14.0384 9.75375 13.5836 8.69295 12.4259 8.69295C10.8203 8.69295 10.153 9.8362 10.153 11.6339V17H6.753V5.92365ZM0.922854 16.8555H4.32285V5.77915H0.922854V16.8555ZM4.8099 2.1675C4.81003 2.45248 4.75351 2.73465 4.64363 2.9976C4.53375 3.26055 4.37271 3.49904 4.16985 3.6992C3.75879 4.10773 3.20239 4.3364 2.62285 4.335C2.04434 4.33461 1.48922 4.10652 1.07755 3.70005C0.875434 3.4992 0.714932 3.26045 0.605247 2.99747C0.495561 2.73448 0.438847 2.45244 0.438354 2.1675C0.438354 1.59205 0.667854 1.04125 1.0784 0.63495C1.48971 0.227935 2.04506 -0.000254329 2.6237 2.12724e-07C3.2034 2.12724e-07 3.7593 0.22865 4.16985 0.63495C4.57955 1.04125 4.8099 1.59205 4.8099 2.1675Z" fill="#949494"/>
</svg>
