<svg width="40" height="39" viewBox="0 0 40 39" fill="none" xmlns="http://www.w3.org/2000/svg">
<path fill-rule="evenodd" clip-rule="evenodd" d="M14.5454 13.5896H21.7877V17.1971C22.8309 15.1223 25.5063 13.2581 29.5253 13.2581C37.2297 13.2581 39.0588 17.3882 39.0588 24.9659V39H31.2588V26.6916C31.2588 22.3762 30.2156 19.9427 27.5597 19.9427C23.8761 19.9427 22.3454 22.5654 22.3454 26.6897V39H14.5454V13.5896ZM1.17034 38.6685H8.97034V13.2581H1.17034V38.6685ZM10.0877 4.9725C10.088 5.62629 9.95832 6.27361 9.70624 6.87685C9.45417 7.48008 9.08471 8.0272 8.61934 8.4864C7.67632 9.42362 6.39987 9.94822 5.07034 9.945C3.74315 9.94411 2.46964 9.42084 1.52524 8.48835C1.06155 8.02759 0.69334 7.47986 0.441708 6.87654C0.190076 6.27323 0.0599672 5.62619 0.0588379 4.9725C0.0588379 3.65235 0.585338 2.38875 1.52719 1.45665C2.47076 0.522909 3.74481 -0.000583461 5.07229 4.88015e-07C6.40219 4.88015e-07 7.67749 0.52455 8.61934 1.45665C9.55924 2.38875 10.0877 3.65235 10.0877 4.9725Z" fill="#6A6A6A"/>
</svg>
