<svg width="66" height="60" viewBox="0 0 66 60" fill="none" xmlns="http://www.w3.org/2000/svg">
<path d="M64.8403 24.2473C66.3872 25.9085 66.3872 28.6133 64.8403 30.2745L43.422 53.2758C41.8751 54.937 39.3565 54.937 37.8096 53.2758L16.3932 30.2745C14.8439 28.6133 14.8439 25.9085 16.3932 24.2473L37.8096 1.24819C39.3565 -0.415676 41.8751 -0.415676 43.422 1.24819L64.8403 24.2473Z" fill="#D2D9FF"/>
<path d="M49.6091 29.44C51.156 31.1012 51.156 33.806 49.6091 35.4672L28.1908 58.4685C26.6439 60.1297 24.1252 60.1297 22.5784 58.4685L1.16202 35.4672C-0.38734 33.806 -0.38734 31.1012 1.16202 29.44L22.5784 6.44089C24.1252 4.77703 26.6439 4.77703 28.1908 6.44089L49.6091 29.44Z" fill="#3F3F3F"/>
</svg>
