<svg width="36" height="36" viewBox="0 0 36 36" fill="none" xmlns="http://www.w3.org/2000/svg">
<path fill-rule="evenodd" clip-rule="evenodd" d="M33.4394 21.1121C34.2648 17.0173 33.4297 12.7623 31.1179 9.28327C28.8061 5.80419 25.2069 3.38597 21.1121 2.56059C17.0173 1.73521 12.7623 2.57029 9.28327 4.88211C5.80419 7.19393 3.38597 10.7931 2.56059 14.8879C1.73521 18.9827 2.57029 23.2376 4.88211 26.7167C7.19393 30.1958 10.7931 32.614 14.8879 33.4394C18.9827 34.2648 23.2376 33.4297 26.7167 31.1179C30.1958 28.8061 32.614 25.2069 33.4394 21.1121ZM0.354959 14.4433C1.29825 9.76357 4.06193 5.6502 8.03802 3.00812C12.0141 0.366041 16.8769 -0.588329 21.5567 0.354959C26.2364 1.29825 30.3498 4.06193 32.9919 8.03802C35.634 12.0141 36.5883 16.8769 35.645 21.5567C34.7018 26.2364 31.9381 30.3498 27.962 32.9919C23.9859 35.634 19.1231 36.5883 14.4433 35.645C9.76357 34.7018 5.6502 31.9381 3.00812 27.962C0.366041 23.9859 -0.588329 19.1231 0.354959 14.4433ZM12.1082 23.363C11.8594 23.5281 11.5553 23.5875 11.2627 23.5283C10.97 23.4691 10.7129 23.2961 10.5479 23.0474C10.3828 22.7986 10.3234 22.4945 10.3826 22.2019C10.4418 21.9093 10.6148 21.6522 10.8635 21.4871L21.7188 14.2739L15.6136 13.0433C15.3211 12.9843 15.0641 12.8116 14.8989 12.5631C14.7338 12.3146 14.6742 12.0106 14.7331 11.7182C14.7921 11.4257 14.9648 11.1686 15.2133 11.0035C15.4618 10.8383 15.7657 10.7787 16.0582 10.8376L24.8256 12.6049C25.1181 12.6638 25.3752 12.8365 25.5403 13.085C25.7054 13.3335 25.7651 13.6375 25.7061 13.93L23.9389 22.6973C23.8799 22.9898 23.7072 23.2469 23.4587 23.412C23.2102 23.5772 22.9063 23.6368 22.6138 23.5779C22.3213 23.5189 22.0642 23.3462 21.8991 23.0977C21.734 22.8492 21.6743 22.5452 21.7333 22.2528L22.9639 16.1476L12.1082 23.363Z" fill="white"/>
</svg>
