<svg width="27" height="22" viewBox="0 0 27 22" fill="none" xmlns="http://www.w3.org/2000/svg">
<path d="M26.7696 2.79817C25.7852 3.23439 24.7277 3.52913 23.6159 3.66235C24.763 2.97595 25.6213 1.89563 26.0304 0.622973C24.9527 1.26314 23.7731 1.71375 22.543 1.95521C21.7159 1.072 20.6202 0.486597 19.4262 0.289884C18.2322 0.0931706 17.0067 0.296153 15.9399 0.867317C14.8731 1.43848 14.0247 2.34587 13.5265 3.44861C13.0282 4.55135 12.908 5.78773 13.1844 6.96582C11.0006 6.85617 8.86422 6.28856 6.91397 5.29982C4.96371 4.31109 3.24315 2.92333 1.86395 1.2266C1.39236 2.04009 1.1212 2.98327 1.1212 3.98775C1.12067 4.89201 1.34335 5.78242 1.76949 6.57998C2.19562 7.37754 2.81203 8.05759 3.56402 8.55978C2.69191 8.53203 1.83904 8.29638 1.0764 7.87244V7.94318C1.07631 9.21144 1.51501 10.4407 2.31807 11.4223C3.12112 12.4039 4.23906 13.0775 5.4822 13.3287C4.67317 13.5477 3.82497 13.5799 3.00165 13.423C3.35239 14.5143 4.0356 15.4686 4.95563 16.1522C5.87567 16.8359 6.98646 17.2148 8.13252 17.2358C6.18703 18.7631 3.78435 19.5915 1.31101 19.5878C0.872885 19.588 0.435129 19.5624 0 19.5112C2.51058 21.1254 5.43308 21.9821 8.41783 21.9788C18.5216 21.9788 24.045 13.6105 24.045 6.35275C24.045 6.11696 24.0391 5.87881 24.0285 5.64302C25.1029 4.86605 26.0303 3.90392 26.7673 2.8017L26.7696 2.79817Z" fill="#949494"/>
</svg>
