<svg width="22" height="17" viewBox="0 0 22 17" fill="none" xmlns="http://www.w3.org/2000/svg">
<path d="M21.6033 2.01651C20.8115 2.35727 19.9608 2.58752 19.0665 2.69159C19.9892 2.15539 20.6796 1.31147 21.0087 0.317296C20.1418 0.81738 19.193 1.16939 18.2035 1.35801C17.5381 0.668066 16.6568 0.210762 15.6963 0.057094C14.7359 -0.0965741 13.7501 0.0619913 12.892 0.508172C12.0339 0.954353 11.3514 1.66319 10.9506 2.52462C10.5498 3.38605 10.4531 4.35189 10.6755 5.27219C8.9188 5.18653 7.20033 4.74313 5.63156 3.97075C4.06279 3.19837 2.67878 2.11428 1.56936 0.788839C1.19001 1.42432 0.971892 2.1611 0.971892 2.94578C0.971469 3.65217 1.15059 4.34774 1.49337 4.97078C1.83615 5.59381 2.33199 6.12505 2.93688 6.51736C2.23536 6.49568 1.54932 6.31159 0.935855 5.98042V6.03568C0.935784 7.02642 1.28867 7.98667 1.93465 8.7535C2.58062 9.52033 3.47988 10.0465 4.47985 10.2427C3.82908 10.4138 3.14679 10.439 2.48452 10.3164C2.76665 11.1689 3.31622 11.9143 4.05629 12.4484C4.79636 12.9825 5.68988 13.2785 6.61176 13.2949C5.04681 14.4879 3.11412 15.1351 1.12458 15.1322C0.772151 15.1323 0.420022 15.1123 0.0700073 15.0724C2.0895 16.3334 4.44035 17.0026 6.84126 17C14.9687 17 19.4117 10.4628 19.4117 4.79328C19.4117 4.60908 19.407 4.42304 19.3984 4.23884C20.2626 3.63189 21.0086 2.8803 21.6014 2.01927L21.6033 2.01651Z" fill="#949494"/>
</svg>
