<svg width="390" height="406" viewBox="0 0 390 406" fill="none" xmlns="http://www.w3.org/2000/svg">
<g filter="url(#filter0_i_378_4405)">
<rect x="1" width="387" height="406" rx="15" fill="#AFBCFF" fill-opacity="0.2"/>
</g>
<g filter="url(#filter1_d_378_4405)">
<rect width="257.858" height="49.4563" rx="20" transform="matrix(0.989228 -0.146383 0.141573 0.989928 3 335.746)" fill="white" shape-rendering="crispEdges"/>
<path d="M39.5304 357.93L46.398 356.931L46.9892 358.078L39.1122 359.224L39.5304 357.93ZM48.433 361.89L41.8066 349.96L38.8144 363.289L37.3498 363.502L40.8044 348.488L42.4273 348.252L49.9965 361.662L48.433 361.89ZM52.5963 355.585L53.4082 361.166L52.0228 361.367L50.5055 350.937L51.792 350.75L52.1375 353.125C52.3956 352.306 52.8473 351.614 53.4926 351.049C54.1379 350.483 54.8894 350.138 55.747 350.013L55.9572 351.458C55.2277 351.537 54.5862 351.758 54.0328 352.122C53.4925 352.483 53.0902 352.96 52.8259 353.551C52.5615 354.141 52.485 354.819 52.5963 355.585ZM62.892 360.009C61.9684 360.143 61.1234 360.03 60.3569 359.67C59.5904 359.31 58.9498 358.75 58.4349 357.989C57.9201 357.229 57.5849 356.314 57.4295 355.245C57.2759 354.19 57.3385 353.231 57.6173 352.368C57.8941 351.493 58.3486 350.773 58.9807 350.21C59.626 349.644 60.4038 349.295 61.3142 349.163C62.1191 349.046 62.8697 349.112 63.5662 349.361C64.2626 349.61 64.8614 350.021 65.3625 350.595C65.8769 351.167 66.2634 351.879 66.522 352.73L65.1168 352.935C64.8203 352.008 64.3499 351.322 63.7058 350.876C63.073 350.416 62.3343 350.247 61.4899 350.37C60.8434 350.464 60.2953 350.726 59.8458 351.155C59.4094 351.582 59.0978 352.126 58.9109 352.787C58.7372 353.445 58.7118 354.197 58.8347 355.041C58.9575 355.885 59.1979 356.612 59.5558 357.22C59.9251 357.813 60.3797 358.252 60.9197 358.537C61.471 358.807 62.0699 358.895 62.7164 358.801C63.574 358.677 64.2415 358.31 64.7189 357.702C65.1944 357.08 65.4412 356.276 65.4594 355.29L66.8646 355.085C66.8745 355.987 66.7144 356.785 66.3843 357.48C66.0674 358.172 65.6106 358.737 65.014 359.174C64.4174 359.612 63.7101 359.89 62.892 360.009ZM70.1897 352.52L71.0736 358.596L69.6882 358.798L67.621 344.587L69.0064 344.386L69.8356 350.086C70.0621 349.42 70.4368 348.846 70.9597 348.366C71.4827 347.886 72.1202 347.591 72.8723 347.482C73.9542 347.324 74.8674 347.535 75.6118 348.114C76.3694 348.691 76.8375 349.593 77.016 350.82L78.0006 357.588L76.6152 357.79L75.6997 351.496C75.5538 350.493 75.2172 349.754 74.6899 349.279C74.1758 348.801 73.4899 348.624 72.6323 348.749C72.0913 348.828 71.6177 349.045 71.2113 349.401C70.803 349.743 70.5034 350.184 70.3124 350.724C70.1347 351.262 70.0938 351.86 70.1897 352.52ZM82.303 356.963L80.9176 357.164L79.4003 346.734L80.7857 346.532L82.303 356.963ZM80.85 344.057C80.8942 344.361 80.8251 344.627 80.6428 344.856C80.4736 345.082 80.2176 345.221 79.8745 345.27C79.5578 345.317 79.2796 345.256 79.0397 345.089C78.7998 344.922 78.6577 344.686 78.6136 344.383C78.5694 344.079 78.6395 343.82 78.8237 343.604C79.006 343.376 79.2555 343.238 79.5722 343.192C79.9152 343.142 80.2001 343.202 80.4268 343.371C80.6648 343.525 80.8059 343.754 80.85 344.057ZM90.4755 354.42L90.654 355.647C90.4074 355.804 90.1682 355.919 89.9365 355.994C89.7047 356.068 89.4569 356.124 89.193 356.162C88.6257 356.245 88.0958 356.214 87.6032 356.07C87.1107 355.926 86.6923 355.644 86.3481 355.222C86.017 354.799 85.7968 354.211 85.6874 353.459L84.7689 347.145L82.3148 347.502L82.1449 346.335L84.5991 345.978L84.1499 342.89L85.5353 342.689L85.9845 345.776L89.2501 345.301L89.4199 346.469L86.1543 346.944L87.0296 352.96C87.1486 353.778 87.4093 354.32 87.8116 354.585C88.2271 354.848 88.7185 354.938 89.2859 354.855C89.5102 354.823 89.7118 354.773 89.8908 354.707C90.0829 354.638 90.2778 354.543 90.4755 354.42ZM96.6397 355.079C95.6634 355.221 94.7731 355.121 93.969 354.78C93.1761 354.424 92.5147 353.86 91.9847 353.088C91.468 352.315 91.1299 351.38 90.9706 350.285C90.8228 349.269 90.8959 348.336 91.1897 347.485C91.4949 346.618 91.9701 345.902 92.6154 345.337C93.272 344.756 94.0621 344.399 94.9857 344.265C95.7246 344.157 96.412 344.205 97.048 344.409C97.6952 344.598 98.2608 344.92 98.7446 345.375C99.2417 345.828 99.6401 346.39 99.9397 347.06C100.251 347.716 100.435 348.471 100.491 349.325L91.7832 350.591L91.645 349.641L98.9084 348.585C98.6848 347.418 98.2357 346.554 97.5611 345.992C96.8978 345.415 96.0845 345.196 95.1214 345.336C94.4484 345.434 93.8806 345.699 93.4179 346.13C92.9664 346.546 92.6416 347.091 92.4434 347.767C92.2453 348.443 92.2096 349.216 92.3362 350.087C92.4668 350.984 92.7195 351.749 93.0945 352.381C93.4675 353.001 93.9373 353.451 94.5037 353.732C95.0833 354.012 95.7359 354.099 96.4616 353.993C97.3324 353.867 98.0179 353.531 98.5181 352.987C99.0295 352.427 99.3115 351.726 99.364 350.883L100.73 350.684C100.659 351.867 100.257 352.855 99.5239 353.649C98.8018 354.428 97.8404 354.904 96.6397 355.079ZM107.229 353.559C106.306 353.693 105.461 353.58 104.694 353.22C103.928 352.86 103.287 352.3 102.772 351.539C102.258 350.779 101.922 349.864 101.767 348.796C101.613 347.74 101.676 346.781 101.955 345.919C102.232 345.043 102.686 344.323 103.318 343.76C103.963 343.194 104.741 342.845 105.652 342.713C106.457 342.596 107.207 342.662 107.904 342.911C108.6 343.16 109.199 343.571 109.7 344.145C110.214 344.717 110.601 345.429 110.859 346.28L109.454 346.485C109.158 345.558 108.687 344.872 108.043 344.426C107.41 343.966 106.672 343.797 105.827 343.92C105.181 344.014 104.633 344.276 104.183 344.705C103.747 345.132 103.435 345.676 103.248 346.337C103.075 346.995 103.049 347.747 103.172 348.591C103.295 349.436 103.535 350.162 103.893 350.77C104.263 351.363 104.717 351.802 105.257 352.087C105.808 352.357 106.407 352.445 107.054 352.351C107.911 352.227 108.579 351.86 109.056 351.252C109.532 350.63 109.779 349.826 109.797 348.84L111.202 348.636C111.212 349.537 111.052 350.335 110.722 351.03C110.405 351.722 109.948 352.287 109.351 352.725C108.755 353.162 108.048 353.44 107.229 353.559ZM119.196 350.241L119.375 351.468C119.128 351.626 118.889 351.741 118.657 351.815C118.426 351.89 118.178 351.946 117.914 351.984C117.346 352.067 116.817 352.036 116.324 351.892C115.832 351.748 115.413 351.465 115.069 351.044C114.738 350.621 114.518 350.033 114.408 349.281L113.49 342.967L111.036 343.324L110.866 342.157L113.32 341.8L112.871 338.712L114.256 338.511L114.705 341.598L117.971 341.123L118.141 342.291L114.875 342.766L115.75 348.782C115.869 349.6 116.13 350.142 116.532 350.407C116.948 350.67 117.439 350.76 118.007 350.677C118.231 350.645 118.433 350.595 118.612 350.529C118.804 350.46 118.999 350.364 119.196 350.241ZM127.642 346.082L126.735 339.848L128.101 339.649L129.618 350.079L128.332 350.267L128.058 348.386C127.883 349.032 127.527 349.595 126.991 350.078C126.452 350.547 125.801 350.837 125.035 350.948C124.336 351.05 123.697 351.008 123.118 350.823C122.549 350.623 122.079 350.26 121.706 349.735C121.331 349.196 121.081 348.492 120.954 347.621L119.967 340.833L121.352 340.631L122.296 347.123C122.45 348.178 122.798 348.902 123.34 349.295C123.88 349.675 124.513 349.812 125.239 349.706C125.793 349.625 126.261 349.416 126.643 349.077C127.038 348.737 127.325 348.304 127.505 347.78C127.685 347.255 127.73 346.689 127.642 346.082ZM133.192 343.86L134.004 349.441L132.619 349.643L131.102 339.213L132.388 339.026L132.733 341.401C132.992 340.582 133.443 339.889 134.089 339.324C134.734 338.758 135.485 338.413 136.343 338.289L136.553 339.733C135.824 339.813 135.182 340.034 134.629 340.397C134.089 340.759 133.686 341.235 133.422 341.826C133.158 342.417 133.081 343.095 133.192 343.86ZM143.683 348.235C142.707 348.377 141.816 348.278 141.012 347.937C140.219 347.581 139.558 347.017 139.028 346.245C138.511 345.471 138.173 344.537 138.014 343.442C137.866 342.426 137.939 341.492 138.233 340.641C138.538 339.775 139.013 339.059 139.659 338.493C140.315 337.913 141.105 337.555 142.029 337.421C142.768 337.314 143.455 337.362 144.091 337.566C144.739 337.754 145.304 338.076 145.788 338.531C146.285 338.985 146.683 339.546 146.983 340.217C147.294 340.872 147.478 341.627 147.535 342.481L138.826 343.748L138.688 342.798L145.952 341.741C145.728 340.575 145.279 339.71 144.604 339.148C143.941 338.571 143.128 338.353 142.165 338.493C141.492 338.591 140.924 338.855 140.461 339.286C140.01 339.702 139.685 340.248 139.487 340.923C139.289 341.599 139.253 342.372 139.38 343.243C139.51 344.14 139.763 344.905 140.138 345.538C140.511 346.157 140.981 346.608 141.547 346.889C142.127 347.168 142.779 347.255 143.505 347.15C144.376 347.023 145.061 346.688 145.561 346.143C146.073 345.584 146.355 344.883 146.407 344.04L147.773 343.841C147.702 345.023 147.301 346.012 146.567 346.805C145.845 347.584 144.884 348.061 143.683 348.235ZM159.197 349.899C158.327 350.026 157.539 349.986 156.835 349.778C156.133 349.584 155.557 349.23 155.105 348.716C154.668 348.214 154.374 347.583 154.223 346.823L155.549 346.631C155.738 347.465 156.129 348.069 156.722 348.441C157.315 348.812 158.08 348.93 159.016 348.794C160.059 348.642 160.804 348.258 161.254 347.64C161.705 347.035 161.856 346.225 161.708 345.209L161.389 343.012C161.178 343.784 160.798 344.418 160.251 344.916C159.717 345.411 159.06 345.715 158.282 345.829C157.411 345.955 156.614 345.849 155.891 345.51C155.168 345.17 154.564 344.631 154.08 343.894C153.593 343.142 153.273 342.239 153.119 341.184C152.966 340.128 153.01 339.179 153.251 338.335C153.505 337.49 153.93 336.801 154.527 336.27C155.123 335.738 155.857 335.409 156.728 335.283C157.519 335.168 158.249 335.277 158.918 335.611C159.599 335.943 160.167 336.467 160.621 337.182L160.299 334.965L161.585 334.778L163.068 344.971C163.266 346.33 163.023 347.436 162.338 348.29C161.669 349.156 160.622 349.692 159.197 349.899ZM154.505 340.982C154.691 342.262 155.121 343.223 155.794 343.867C156.48 344.508 157.318 344.756 158.307 344.612C158.967 344.516 159.51 344.269 159.937 343.87C160.377 343.469 160.693 342.952 160.884 342.318C161.072 341.67 161.108 340.944 160.991 340.14C160.807 338.873 160.363 337.907 159.66 337.241C158.968 336.56 158.121 336.293 157.118 336.439C156.128 336.583 155.396 337.06 154.921 337.87C154.459 338.678 154.321 339.715 154.505 340.982ZM166.687 338.988L167.499 344.569L166.114 344.77L164.596 334.34L165.883 334.153L166.228 336.528C166.486 335.709 166.938 335.017 167.583 334.451C168.229 333.886 168.98 333.541 169.838 333.416L170.048 334.861C169.318 334.94 168.677 335.161 168.123 335.525C167.583 335.886 167.181 336.362 166.917 336.953C166.652 337.544 166.576 338.222 166.687 338.988ZM179.484 342.825L179.207 340.925C178.998 341.616 178.618 342.197 178.066 342.668C177.513 343.125 176.828 343.414 176.01 343.533C174.928 343.69 174.023 343.539 173.296 343.079C172.567 342.605 172.134 341.9 171.998 340.964C171.85 339.948 172.141 339.124 172.871 338.492C173.599 337.847 174.755 337.41 176.338 337.179C176.655 337.133 176.966 337.095 177.271 337.064C177.577 337.033 177.984 337.007 178.493 336.987L178.364 336.097C178.237 335.226 177.914 334.579 177.394 334.156C176.888 333.731 176.239 333.576 175.447 333.691C174.603 333.814 173.966 334.163 173.538 334.737C173.107 335.298 172.947 336.002 173.057 336.848L171.79 337.033C171.69 336.252 171.77 335.553 172.031 334.936C172.289 334.306 172.692 333.789 173.24 333.386C173.799 332.968 174.474 332.701 175.266 332.586C176.493 332.407 177.492 332.606 178.263 333.181C179.034 333.756 179.507 334.65 179.684 335.864L180.671 342.652L179.484 342.825ZM173.318 340.731C173.41 341.364 173.71 341.846 174.216 342.177C174.72 342.494 175.335 342.6 176.061 342.495C177.037 342.353 177.767 341.95 178.25 341.287C178.731 340.611 178.9 339.784 178.758 338.808L178.623 337.878C178.168 337.903 177.775 337.934 177.443 337.968C177.125 338.001 176.82 338.039 176.53 338.081C175.356 338.252 174.498 338.559 173.956 339.001C173.425 339.429 173.213 340.005 173.318 340.731ZM182.054 337.116C181.898 336.047 181.947 335.083 182.199 334.225C182.463 333.351 182.905 332.64 183.526 332.092C184.145 331.53 184.923 331.181 185.859 331.045C186.638 330.932 187.374 331.04 188.069 331.37C188.762 331.687 189.335 332.197 189.787 332.899L188.92 326.941L190.306 326.74L192.373 340.95L191.087 341.137L190.767 338.94C190.507 339.746 190.084 340.407 189.499 340.924C188.927 341.438 188.239 341.754 187.434 341.871C186.497 342.007 185.653 341.901 184.902 341.552C184.149 341.19 183.521 340.628 183.02 339.865C182.531 339.101 182.209 338.185 182.054 337.116ZM183.459 336.911C183.653 338.244 184.113 339.235 184.841 339.883C185.569 340.532 186.441 340.782 187.456 340.635C188.143 340.535 188.711 340.277 189.163 339.861C189.628 339.443 189.952 338.897 190.137 338.224C190.334 337.535 190.368 336.755 190.242 335.884C190.115 335.014 189.855 334.29 189.461 333.714C189.081 333.136 188.609 332.72 188.046 332.465C187.497 332.208 186.893 332.127 186.233 332.223C185.217 332.371 184.453 332.86 183.94 333.689C183.427 334.518 183.267 335.592 183.459 336.911ZM201.435 335.347L200.528 329.113L201.893 328.914L203.411 339.344L202.124 339.532L201.851 337.651C201.675 338.297 201.319 338.861 200.783 339.343C200.245 339.812 199.593 340.102 198.828 340.213C198.129 340.315 197.49 340.273 196.91 340.088C196.342 339.888 195.872 339.525 195.499 339C195.124 338.462 194.873 337.757 194.747 336.886L193.759 330.098L195.145 329.896L196.089 336.388C196.243 337.443 196.59 338.167 197.133 338.56C197.673 338.94 198.306 339.077 199.031 338.971C199.586 338.89 200.054 338.681 200.436 338.342C200.831 338.002 201.118 337.569 201.298 337.045C201.477 336.52 201.523 335.954 201.435 335.347ZM212.824 337.975L212.548 336.075C212.338 336.766 211.958 337.347 211.407 337.818C210.853 338.275 210.168 338.564 209.35 338.683C208.268 338.84 207.363 338.689 206.636 338.229C205.907 337.755 205.474 337.05 205.338 336.113C205.19 335.097 205.481 334.274 206.211 333.642C206.939 332.997 208.095 332.56 209.678 332.329C209.995 332.283 210.306 332.245 210.612 332.214C210.917 332.183 211.324 332.157 211.833 332.137L211.704 331.246C211.577 330.376 211.254 329.729 210.734 329.306C210.228 328.881 209.579 328.726 208.787 328.841C207.943 328.964 207.306 329.313 206.878 329.887C206.447 330.448 206.287 331.152 206.397 331.998L205.13 332.182C205.03 331.402 205.11 330.703 205.371 330.086C205.629 329.456 206.032 328.939 206.58 328.536C207.139 328.118 207.814 327.851 208.606 327.736C209.833 327.557 210.832 327.756 211.603 328.331C212.374 328.906 212.847 329.8 213.024 331.014L214.011 337.802L212.824 337.975ZM206.658 335.881C206.75 336.514 207.05 336.996 207.556 337.327C208.06 337.644 208.675 337.75 209.401 337.644C210.377 337.502 211.107 337.1 211.59 336.437C212.071 335.761 212.24 334.934 212.098 333.958L211.963 333.028C211.508 333.053 211.115 333.084 210.784 333.118C210.465 333.151 210.161 333.189 209.87 333.231C208.696 333.402 207.838 333.709 207.296 334.151C206.765 334.579 206.553 335.155 206.658 335.881ZM222.058 335.278L222.236 336.505C221.99 336.662 221.75 336.778 221.519 336.852C221.287 336.926 221.039 336.982 220.775 337.021C220.208 337.103 219.678 337.072 219.185 336.928C218.693 336.785 218.274 336.502 217.93 336.08C217.599 335.657 217.379 335.069 217.27 334.317L216.351 328.004L213.897 328.361L213.727 327.193L216.181 326.836L215.732 323.748L217.117 323.547L217.567 326.634L220.832 326.159L221.002 327.327L217.736 327.802L218.612 333.819C218.731 334.637 218.991 335.178 219.394 335.443C219.809 335.706 220.301 335.796 220.868 335.714C221.092 335.681 221.294 335.631 221.473 335.565C221.665 335.497 221.86 335.401 222.058 335.278ZM228.222 335.937C227.246 336.079 226.355 335.98 225.551 335.639C224.758 335.282 224.097 334.718 223.567 333.947C223.05 333.173 222.712 332.239 222.553 331.143C222.405 330.128 222.478 329.194 222.772 328.343C223.077 327.477 223.552 326.761 224.198 326.195C224.854 325.615 225.644 325.257 226.568 325.123C227.307 325.015 227.994 325.064 228.63 325.267C229.277 325.456 229.843 325.778 230.327 326.233C230.824 326.686 231.222 327.248 231.522 327.919C231.833 328.574 232.017 329.329 232.074 330.183L223.365 331.45L223.227 330.5L230.491 329.443C230.267 328.276 229.818 327.412 229.143 326.85C228.48 326.273 227.667 326.054 226.704 326.194C226.031 326.292 225.463 326.557 225 326.988C224.549 327.404 224.224 327.95 224.026 328.625C223.827 329.301 223.792 330.074 223.918 330.945C224.049 331.842 224.302 332.607 224.677 333.24C225.05 333.859 225.519 334.309 226.086 334.591C226.665 334.87 227.318 334.957 228.044 334.852C228.915 334.725 229.6 334.389 230.1 333.845C230.612 333.286 230.894 332.584 230.946 331.741L232.312 331.543C232.241 332.725 231.839 333.713 231.106 334.507C230.384 335.286 229.423 335.763 228.222 335.937Z" fill="black"/>
<rect x="1.6962" y="1.26532" width="254.858" height="46.4563" rx="18.5" transform="matrix(0.989228 -0.146383 0.141573 0.989928 2.83914 336.007)" stroke="#CBD3FF" stroke-width="3" shape-rendering="crispEdges"/>
</g>
<g filter="url(#filter2_d_378_4405)">
<rect width="170.438" height="49.4577" rx="20" transform="matrix(0.995902 -0.0904371 0.0857988 0.996312 77 204.232)" fill="white" shape-rendering="crispEdges"/>
<path d="M116.007 233.438L111.943 233.798L110.678 219.494L114.742 219.134C116.269 218.999 117.591 219.19 118.708 219.707C119.823 220.211 120.7 220.97 121.338 221.984C121.977 222.999 122.358 224.203 122.481 225.598C122.603 226.979 122.434 228.239 121.972 229.377C121.509 230.502 120.768 231.431 119.749 232.164C118.742 232.882 117.494 233.307 116.007 233.438ZM112.286 220.657L113.322 232.371L115.852 232.147C117.074 232.039 118.082 231.702 118.875 231.137C119.668 230.571 120.238 229.825 120.584 228.897C120.944 227.969 121.072 226.914 120.967 225.732C120.863 224.549 120.553 223.546 120.038 222.722C119.536 221.883 118.846 221.268 117.968 220.877C117.089 220.473 116.038 220.325 114.816 220.433L112.286 220.657ZM126.817 232.482L125.423 232.606L124.494 222.107L125.889 221.983L126.817 232.482ZM126.092 219.516C126.119 219.821 126.035 220.083 125.84 220.301C125.659 220.518 125.395 220.642 125.05 220.672C124.731 220.7 124.457 220.624 124.227 220.444C123.997 220.263 123.868 220.02 123.841 219.715C123.814 219.41 123.898 219.154 124.095 218.95C124.289 218.732 124.546 218.609 124.865 218.58C125.21 218.55 125.491 218.625 125.708 218.807C125.937 218.974 126.065 219.21 126.092 219.516ZM134.163 235.928C133.286 236.006 132.503 235.921 131.811 235.675C131.122 235.441 130.565 235.055 130.143 234.517C129.735 233.991 129.477 233.345 129.369 232.578L130.704 232.46C130.846 233.304 131.202 233.928 131.773 234.333C132.344 234.737 133.101 234.898 134.044 234.815C135.094 234.722 135.86 234.38 136.343 233.788C136.827 233.21 137.024 232.409 136.934 231.387L136.738 229.175C136.484 229.934 136.07 230.546 135.495 231.012C134.934 231.477 134.261 231.744 133.478 231.813C132.601 231.89 131.811 231.739 131.109 231.36C130.406 230.98 129.833 230.409 129.391 229.645C128.947 228.867 128.679 227.947 128.585 226.885C128.491 225.822 128.588 224.877 128.876 224.048C129.177 223.218 129.641 222.555 130.266 222.058C130.891 221.561 131.642 221.274 132.519 221.196C133.316 221.126 134.038 221.276 134.687 221.647C135.349 222.017 135.886 222.572 136.3 223.311L136.102 221.08L137.397 220.966L138.305 231.225C138.426 232.593 138.121 233.684 137.39 234.499C136.673 235.325 135.597 235.802 134.163 235.928ZM129.979 226.762C130.093 228.05 130.468 229.034 131.104 229.714C131.753 230.393 132.575 230.688 133.571 230.6C134.235 230.541 134.792 230.325 135.24 229.95C135.703 229.575 136.047 229.076 136.273 228.454C136.497 227.818 136.574 227.095 136.502 226.285C136.39 225.01 136.001 224.02 135.336 223.316C134.684 222.598 133.853 222.283 132.844 222.372C131.847 222.46 131.09 222.895 130.57 223.678C130.063 224.459 129.866 225.487 129.979 226.762ZM142.751 231.073L141.356 231.196L140.428 220.697L141.822 220.574L142.751 231.073ZM142.026 218.107C142.053 218.412 141.969 218.674 141.774 218.892C141.592 219.109 141.329 219.232 140.984 219.263C140.665 219.291 140.391 219.215 140.16 219.035C139.93 218.854 139.802 218.611 139.775 218.306C139.748 218 139.832 217.745 140.028 217.54C140.223 217.322 140.48 217.199 140.799 217.171C141.144 217.141 141.425 217.216 141.642 217.398C141.871 217.565 141.999 217.801 142.026 218.107ZM151.054 228.994L151.163 230.229C150.908 230.372 150.662 230.474 150.427 230.535C150.191 230.596 149.941 230.638 149.675 230.661C149.104 230.712 148.577 230.652 148.093 230.48C147.609 230.309 147.208 230.003 146.888 229.563C146.581 229.121 146.394 228.522 146.327 227.765L145.765 221.41L143.295 221.629L143.191 220.453L145.661 220.235L145.386 217.127L146.781 217.003L147.056 220.111L150.343 219.821L150.447 220.996L147.16 221.287L147.695 227.343C147.768 228.166 147.998 228.722 148.385 229.009C148.785 229.295 149.27 229.412 149.841 229.362C150.067 229.342 150.271 229.304 150.454 229.247C150.649 229.19 150.849 229.105 151.054 228.994ZM159.834 229.562L159.665 227.65C159.417 228.327 159.005 228.886 158.428 229.325C157.85 229.751 157.149 230 156.326 230.073C155.237 230.17 154.342 229.968 153.642 229.467C152.941 228.954 152.548 228.226 152.465 227.283C152.375 226.26 152.712 225.454 153.476 224.864C154.239 224.261 155.418 223.889 157.011 223.748C157.33 223.72 157.643 223.699 157.949 223.685C158.256 223.672 158.664 223.669 159.173 223.678L159.094 222.781C159.017 221.905 158.73 221.24 158.235 220.789C157.754 220.336 157.114 220.145 156.317 220.216C155.467 220.291 154.812 220.603 154.352 221.153C153.891 221.689 153.691 222.382 153.753 223.233L152.478 223.346C152.422 222.561 152.542 221.868 152.836 221.266C153.13 220.652 153.562 220.158 154.131 219.787C154.713 219.401 155.402 219.172 156.199 219.102C157.434 218.993 158.42 219.247 159.157 219.864C159.895 220.482 160.317 221.401 160.425 222.623L161.03 229.456L159.834 229.562ZM153.796 227.125C153.853 227.762 154.124 228.26 154.611 228.619C155.097 228.964 155.705 229.104 156.435 229.04C157.418 228.953 158.169 228.592 158.689 227.957C159.207 227.309 159.422 226.493 159.336 225.51L159.253 224.574C158.798 224.574 158.404 224.582 158.07 224.598C157.75 224.613 157.444 224.634 157.152 224.659C155.97 224.764 155.096 225.022 154.53 225.433C153.976 225.83 153.732 226.394 153.796 227.125ZM165.358 229.074L163.963 229.197L162.698 214.893L164.093 214.77L165.358 229.074ZM178.998 227.867L178.829 225.955C178.581 226.633 178.168 227.191 177.591 227.63C177.013 228.056 176.313 228.306 175.489 228.378C174.4 228.475 173.505 228.273 172.805 227.772C172.104 227.259 171.712 226.531 171.628 225.588C171.538 224.565 171.875 223.759 172.639 223.169C173.402 222.566 174.581 222.194 176.175 222.053C176.493 222.025 176.806 222.004 177.113 221.991C177.419 221.977 177.827 221.974 178.337 221.983L178.257 221.086C178.18 220.21 177.894 219.546 177.399 219.094C176.917 218.642 176.278 218.45 175.481 218.521C174.631 218.596 173.976 218.908 173.516 219.458C173.054 219.994 172.855 220.687 172.917 221.538L171.642 221.651C171.586 220.866 171.705 220.173 172 219.572C172.293 218.957 172.725 218.463 173.294 218.092C173.876 217.706 174.565 217.478 175.362 217.407C176.597 217.298 177.583 217.552 178.321 218.169C179.058 218.787 179.481 219.706 179.589 220.928L180.193 227.762L178.998 227.867ZM172.96 225.43C173.016 226.067 173.288 226.565 173.774 226.924C174.26 227.269 174.868 227.409 175.599 227.345C176.581 227.258 177.332 226.897 177.852 226.262C178.37 225.614 178.586 224.798 178.499 223.816L178.416 222.879C177.961 222.879 177.567 222.887 177.234 222.903C176.914 222.918 176.608 222.939 176.315 222.965C175.133 223.069 174.259 223.327 173.693 223.739C173.14 224.136 172.895 224.699 172.96 225.43ZM184.024 221.761L184.521 227.379L183.127 227.502L182.198 217.003L183.493 216.889L183.704 219.279C184.008 218.476 184.498 217.81 185.174 217.282C185.85 216.754 186.62 216.452 187.483 216.375L187.612 217.829C186.879 217.868 186.226 218.052 185.653 218.384C185.093 218.715 184.665 219.168 184.368 219.743C184.071 220.318 183.956 220.99 184.024 221.761ZM196.034 225.015L196.143 226.251C195.888 226.394 195.643 226.496 195.407 226.557C195.172 226.618 194.921 226.66 194.655 226.683C194.084 226.734 193.557 226.673 193.073 226.502C192.59 226.331 192.188 226.025 191.868 225.585C191.561 225.143 191.374 224.544 191.307 223.787L190.745 217.432L188.275 217.65L188.171 216.475L190.641 216.256L190.366 213.149L191.761 213.025L192.036 216.133L195.323 215.842L195.427 217.018L192.14 217.309L192.675 223.365C192.748 224.188 192.978 224.744 193.365 225.031C193.765 225.316 194.25 225.434 194.822 225.384C195.047 225.364 195.251 225.325 195.434 225.269C195.63 225.212 195.829 225.127 196.034 225.015ZM199.754 226.031L198.36 226.155L197.431 215.656L198.826 215.533L199.754 226.031ZM199.029 213.065C199.056 213.371 198.972 213.632 198.777 213.85C198.596 214.067 198.332 214.191 197.987 214.221C197.668 214.25 197.394 214.173 197.164 213.993C196.934 213.813 196.805 213.57 196.778 213.264C196.751 212.959 196.836 212.704 197.032 212.499C197.227 212.281 197.483 212.158 197.802 212.13C198.147 212.099 198.429 212.175 198.645 212.356C198.874 212.523 199.002 212.76 199.029 213.065ZM210.366 222.141C210.452 223.111 210.155 223.907 209.473 224.529C208.792 225.152 207.801 225.521 206.499 225.636C205.198 225.751 204.134 225.53 203.309 224.974C202.496 224.417 201.99 223.605 201.788 222.539L203.123 222.421C203.229 223.161 203.58 223.726 204.176 224.114C204.773 224.503 205.516 224.659 206.406 224.58C207.269 224.504 207.926 224.285 208.376 223.924C208.839 223.562 209.044 223.082 208.991 222.484C208.946 221.966 208.745 221.589 208.389 221.353C208.033 221.103 207.449 220.934 206.638 220.845L205.097 220.68C204.085 220.582 203.298 220.317 202.738 219.885C202.177 219.439 201.862 218.838 201.795 218.081C201.744 217.496 201.857 216.964 202.136 216.485C202.428 216.004 202.849 215.612 203.398 215.309C203.96 215.005 204.619 214.819 205.376 214.752C206.186 214.681 206.903 214.758 207.525 214.984C208.159 215.196 208.678 215.538 209.081 216.011C209.485 216.484 209.737 217.071 209.839 217.771L208.525 217.887C208.394 217.163 208.058 216.623 207.518 216.27C206.977 215.903 206.295 215.755 205.471 215.828C204.728 215.894 204.137 216.107 203.701 216.467C203.277 216.825 203.09 217.284 203.14 217.842C203.185 218.359 203.387 218.743 203.743 218.993C204.113 219.241 204.697 219.404 205.493 219.481L207.093 219.64C208.147 219.748 208.939 220.006 209.471 220.414C210.002 220.822 210.301 221.398 210.366 222.141ZM218.251 223.05L218.361 224.286C218.106 224.429 217.86 224.531 217.625 224.592C217.389 224.653 217.139 224.695 216.873 224.718C216.302 224.769 215.775 224.708 215.291 224.537C214.807 224.366 214.406 224.06 214.085 223.62C213.779 223.178 213.592 222.579 213.525 221.822L212.963 215.467L210.493 215.685L210.389 214.51L212.859 214.291L212.584 211.184L213.979 211.06L214.253 214.168L217.541 213.877L217.645 215.053L214.357 215.344L214.893 221.4C214.966 222.223 215.196 222.779 215.582 223.066C215.983 223.351 216.468 223.469 217.039 223.419C217.265 223.399 217.469 223.36 217.652 223.304C217.847 223.247 218.047 223.162 218.251 223.05Z" fill="black"/>
<rect x="1.62255" y="1.35881" width="167.438" height="46.4577" rx="18.5" transform="matrix(0.995902 -0.0904371 0.0857988 0.996312 76.8901 204.384)" stroke="#CBD3FF" stroke-width="3" shape-rendering="crispEdges"/>
</g>
<g filter="url(#filter3_d_378_4405)">
<rect width="209.51" height="49.4575" rx="20" transform="matrix(0.990002 0.141056 -0.136414 0.990652 179.52 240.817)" fill="#CBD3FF" shape-rendering="crispEdges"/>
<path d="M221.684 265.521L220.375 274.87C220.227 275.926 219.88 276.813 219.336 277.531C218.804 278.251 218.119 278.768 217.281 279.081C216.444 279.381 215.505 279.458 214.461 279.312C213.405 279.164 212.516 278.831 211.794 278.313C211.074 277.781 210.551 277.095 210.225 276.255C209.911 275.417 209.828 274.469 209.976 273.413L211.286 264.064L212.771 264.272L211.451 273.7C211.344 274.466 211.409 275.155 211.646 275.767C211.883 276.38 212.258 276.876 212.77 277.258C213.282 277.639 213.908 277.882 214.647 277.985C215.387 278.089 216.055 278.027 216.652 277.801C217.249 277.575 217.739 277.2 218.123 276.675C218.519 276.151 218.771 275.507 218.878 274.741L220.199 265.313L221.684 265.521ZM223.606 280.29L221.923 280.054L227.638 273.423L224.271 265.883L225.975 266.122L228.809 272.557L233.382 267.159L235.026 267.39L229.653 273.746L233.252 281.641L231.549 281.403L228.467 274.569L223.606 280.29ZM233.428 285.563L232.081 285.375L243.382 268.56L244.749 268.752L233.428 285.563ZM256.423 270.387L255.113 279.735C254.965 280.792 254.619 281.679 254.074 282.397C253.543 283.117 252.858 283.633 252.019 283.947C251.183 284.247 250.243 284.324 249.2 284.178C248.144 284.03 247.255 283.697 246.533 283.178C245.813 282.647 245.29 281.961 244.963 281.121C244.65 280.283 244.567 279.335 244.715 278.279L246.025 268.93L247.51 269.138L246.189 278.566C246.082 279.332 246.147 280.021 246.385 280.633C246.622 281.245 246.997 281.742 247.509 282.124C248.021 282.505 248.646 282.747 249.386 282.851C250.125 282.955 250.794 282.893 251.391 282.667C251.988 282.441 252.478 282.066 252.861 281.54C253.258 281.017 253.51 280.372 253.617 279.607L254.937 270.179L256.423 270.387ZM259.078 285.259L257.592 285.051L259.584 270.83L261.07 271.038L259.078 285.259ZM274.544 284.456C274.409 285.42 273.94 286.129 273.136 286.582C272.332 287.034 271.283 287.17 269.989 286.989C268.695 286.808 267.708 286.353 267.03 285.625C266.364 284.899 266.053 283.994 266.097 282.91L267.424 283.096C267.36 283.841 267.575 284.47 268.069 284.983C268.562 285.497 269.251 285.815 270.136 285.939C270.994 286.059 271.683 285.994 272.203 285.744C272.736 285.496 273.044 285.074 273.127 284.48C273.199 283.965 273.089 283.552 272.796 283.242C272.505 282.919 271.974 282.622 271.204 282.353L269.74 281.845C268.776 281.521 268.069 281.086 267.621 280.538C267.174 279.977 267.004 279.321 267.109 278.568C267.191 277.987 267.421 277.494 267.801 277.09C268.194 276.687 268.692 276.4 269.295 276.229C269.911 276.059 270.595 276.027 271.348 276.133C272.154 276.245 272.834 276.482 273.389 276.843C273.96 277.192 274.388 277.642 274.674 278.194C274.96 278.746 275.074 279.374 275.016 280.08L273.709 279.896C273.744 279.161 273.539 278.56 273.093 278.094C272.648 277.614 272.017 277.317 271.198 277.202C270.459 277.099 269.836 277.173 269.329 277.425C268.836 277.679 268.55 278.083 268.473 278.638C268.401 279.153 268.51 279.572 268.801 279.896C269.106 280.221 269.638 280.511 270.396 280.765L271.919 281.282C272.922 281.624 273.635 282.054 274.061 282.571C274.487 283.089 274.648 283.717 274.544 284.456ZM286.844 283.816C286.695 284.886 286.371 285.803 285.873 286.568C285.389 287.335 284.771 287.902 284.02 288.268C283.283 288.622 282.446 288.734 281.509 288.603C280.73 288.493 280.052 288.19 279.476 287.692C278.899 287.194 278.484 286.55 278.231 285.76L277.396 291.722L276.01 291.528L278.007 277.267L279.295 277.448L278.979 279.706C279.444 278.977 280.037 278.447 280.756 278.117C281.477 277.774 282.234 277.657 283.026 277.768C283.951 277.898 284.724 278.242 285.346 278.8C285.969 279.345 286.409 280.053 286.664 280.923C286.934 281.783 286.994 282.747 286.844 283.816ZM285.438 283.619C285.623 282.299 285.45 281.225 284.92 280.397C284.403 279.57 283.636 279.086 282.62 278.943C281.986 278.855 281.388 278.939 280.827 279.197C280.266 279.455 279.79 279.873 279.399 280.451C279.022 281.031 278.77 281.77 278.644 282.668C278.524 283.526 278.565 284.293 278.767 284.967C278.968 285.642 279.303 286.187 279.77 286.602C280.237 287.017 280.793 287.27 281.44 287.361C282.457 287.503 283.328 287.248 284.052 286.596C284.789 285.945 285.251 284.953 285.438 283.619ZM292.416 290.13C291.439 289.993 290.612 289.649 289.936 289.096C289.274 288.532 288.797 287.806 288.504 286.917C288.225 286.029 288.162 285.038 288.315 283.942C288.458 282.925 288.789 282.049 289.309 281.314C289.845 280.568 290.501 280.014 291.279 279.651C292.072 279.278 292.93 279.156 293.855 279.285C294.594 279.389 295.241 279.627 295.794 280.001C296.363 280.363 296.816 280.831 297.153 281.403C297.503 281.977 297.728 282.628 297.828 283.356C297.943 284.072 297.909 284.848 297.724 285.684L289.01 284.463L289.143 283.512L296.412 284.531C296.524 283.348 296.334 282.392 295.844 281.664C295.369 280.924 294.649 280.487 293.685 280.352C293.012 280.258 292.392 280.353 291.828 280.637C291.278 280.91 290.813 281.343 290.434 281.936C290.055 282.529 289.804 283.262 289.682 284.133C289.556 285.031 289.585 285.836 289.768 286.548C289.952 287.247 290.277 287.811 290.742 288.24C291.221 288.67 291.823 288.937 292.549 289.038C293.421 289.16 294.173 289.03 294.805 288.647C295.453 288.253 295.92 287.659 296.206 286.865L297.573 287.056C297.174 288.171 296.512 289.008 295.585 289.565C294.674 290.11 293.618 290.299 292.416 290.13ZM303.008 291.634C302.084 291.505 301.304 291.16 300.669 290.6C300.034 290.04 299.576 289.322 299.295 288.448C299.013 287.574 298.947 286.602 299.097 285.533C299.245 284.476 299.574 283.573 300.082 282.823C300.593 282.06 301.231 281.496 301.995 281.132C302.773 280.77 303.618 280.653 304.529 280.78C305.334 280.893 306.036 281.166 306.635 281.6C307.234 282.034 307.694 282.597 308.015 283.288C308.348 283.981 308.52 284.773 308.53 285.662L307.124 285.466C307.099 284.493 306.839 283.702 306.345 283.095C305.867 282.476 305.205 282.107 304.36 281.988C303.713 281.898 303.113 281.996 302.561 282.282C302.023 282.57 301.572 283.005 301.207 283.587C300.856 284.17 300.622 284.885 300.503 285.73C300.385 286.575 300.413 287.339 300.586 288.023C300.774 288.696 301.088 289.245 301.527 289.67C301.98 290.083 302.531 290.335 303.178 290.426C304.036 290.546 304.779 290.381 305.408 289.931C306.038 289.467 306.5 288.764 306.794 287.822L308.2 288.019C307.957 288.887 307.58 289.609 307.069 290.183C306.571 290.76 305.974 291.174 305.279 291.427C304.584 291.68 303.827 291.749 303.008 291.634ZM311.259 292.568L309.872 292.373L311.334 281.935L312.721 282.13L311.259 292.568ZM313.475 279.772C313.432 280.075 313.292 280.311 313.053 280.48C312.827 280.65 312.542 280.711 312.199 280.663C311.882 280.619 311.632 280.483 311.448 280.255C311.265 280.027 311.194 279.762 311.237 279.458C311.279 279.154 311.419 278.925 311.656 278.77C311.895 278.601 312.173 278.539 312.49 278.583C312.834 278.632 313.09 278.768 313.261 278.994C313.446 279.209 313.517 279.468 313.475 279.772ZM320.68 293.887L320.946 291.986C320.552 292.59 320.024 293.042 319.363 293.339C318.704 293.624 317.965 293.709 317.147 293.594C316.064 293.443 315.238 293.044 314.668 292.399C314.101 291.741 313.883 290.943 314.014 290.005C314.157 288.988 314.667 288.279 315.544 287.877C316.424 287.461 317.656 287.365 319.24 287.587C319.557 287.631 319.866 287.681 320.168 287.737C320.47 287.793 320.868 287.882 321.363 288.005L321.487 287.114C321.609 286.242 321.48 285.531 321.1 284.98C320.732 284.43 320.153 284.1 319.36 283.989C318.515 283.87 317.807 284.027 317.235 284.458C316.665 284.877 316.314 285.507 316.182 286.351L314.914 286.173C315.037 285.396 315.309 284.747 315.732 284.228C316.157 283.695 316.689 283.311 317.327 283.078C317.981 282.833 318.704 282.766 319.496 282.877C320.724 283.049 321.627 283.519 322.207 284.286C322.786 285.054 322.99 286.045 322.82 287.26L321.868 294.054L320.68 293.887ZM315.347 290.151C315.258 290.785 315.41 291.332 315.804 291.791C316.199 292.236 316.76 292.51 317.486 292.612C318.463 292.749 319.276 292.567 319.926 292.065C320.577 291.55 320.97 290.804 321.107 289.827L321.238 288.896C320.794 288.794 320.408 288.713 320.08 288.654C319.765 288.596 319.462 288.547 319.172 288.506C317.997 288.342 317.087 288.396 316.443 288.669C315.814 288.931 315.448 289.425 315.347 290.151ZM326.171 294.656L324.785 294.462L326.777 280.241L328.163 280.435L326.171 294.656ZM330.562 295.271L329.176 295.077L330.638 284.639L332.024 284.833L330.562 295.271ZM332.778 282.475C332.736 282.779 332.595 283.015 332.356 283.184C332.13 283.354 331.846 283.415 331.502 283.367C331.186 283.323 330.935 283.187 330.752 282.959C330.568 282.731 330.498 282.466 330.54 282.162C330.583 281.858 330.723 281.629 330.96 281.473C331.199 281.305 331.477 281.243 331.794 281.287C332.137 281.335 332.394 281.472 332.564 281.698C332.75 281.913 332.821 282.172 332.778 282.475ZM341.778 293.874C341.643 294.838 341.173 295.546 340.369 295.999C339.566 296.452 338.517 296.588 337.223 296.406C335.928 296.225 334.942 295.771 334.263 295.043C333.597 294.317 333.287 293.411 333.331 292.327L334.658 292.513C334.594 293.258 334.809 293.887 335.302 294.401C335.796 294.914 336.485 295.233 337.37 295.357C338.228 295.477 338.917 295.412 339.437 295.161C339.97 294.913 340.278 294.492 340.361 293.897C340.433 293.383 340.322 292.97 340.029 292.66C339.738 292.336 339.207 292.04 338.437 291.77L336.974 291.262C336.009 290.939 335.303 290.503 334.854 289.956C334.408 289.395 334.237 288.738 334.343 287.986C334.424 287.405 334.655 286.912 335.035 286.507C335.428 286.105 335.926 285.818 336.528 285.646C337.145 285.477 337.829 285.445 338.582 285.55C339.387 285.663 340.067 285.9 340.623 286.26C341.193 286.609 341.622 287.06 341.908 287.611C342.194 288.163 342.308 288.792 342.25 289.497L340.942 289.314C340.978 288.578 340.773 287.977 340.326 287.511C339.882 287.031 339.25 286.734 338.432 286.62C337.692 286.516 337.069 286.59 336.563 286.843C336.069 287.097 335.784 287.501 335.706 288.055C335.634 288.57 335.744 288.99 336.035 289.313C336.339 289.639 336.871 289.928 337.63 290.183L339.153 290.699C340.155 291.041 340.869 291.471 341.295 291.989C341.72 292.506 341.881 293.134 341.778 293.874ZM349.255 296.537L349.083 297.765C348.802 297.847 348.54 297.891 348.297 297.897C348.054 297.903 347.8 297.888 347.536 297.851C346.968 297.771 346.468 297.594 346.036 297.318C345.603 297.042 345.28 296.653 345.068 296.152C344.869 295.653 344.822 295.027 344.927 294.275L345.812 287.956L343.356 287.612L343.52 286.444L345.976 286.788L346.408 283.698L347.795 283.892L347.362 286.982L350.63 287.44L350.467 288.608L347.198 288.15L346.355 294.172C346.24 294.99 346.339 295.583 346.651 295.95C346.977 296.319 347.423 296.543 347.991 296.622C348.215 296.654 348.423 296.663 348.613 296.649C348.817 296.637 349.031 296.6 349.255 296.537Z" fill="black"/>
</g>
<g filter="url(#filter4_d_378_4405)">
<rect width="156.348" height="49.4533" rx="20" transform="matrix(0.960069 -0.279763 0.284802 0.958586 15 286.74)" fill="#CBD3FF" shape-rendering="crispEdges"/>
<path d="M53.1251 309.851L51.6861 310.274L47.6323 296.499L55.537 294.173L55.904 295.42L49.4383 297.322L51.0191 302.695L56.5832 301.057L56.9501 302.304L51.3861 303.942L53.1251 309.851ZM62.976 306.952L61.633 307.347L58.6576 297.236L60.0006 296.841L62.976 306.952ZM59.7147 294.382C59.8013 294.676 59.7705 294.949 59.6223 295.201C59.4869 295.449 59.2529 295.623 58.9203 295.72C58.6133 295.811 58.3293 295.79 58.0682 295.658C57.8071 295.527 57.6332 295.314 57.5467 295.02C57.4601 294.726 57.4928 294.459 57.6447 294.219C57.7929 293.967 58.0205 293.796 58.3275 293.706C58.6601 293.608 58.9505 293.627 59.1988 293.762C59.4562 293.881 59.6281 294.088 59.7147 294.382ZM70.856 308.886C70.0118 309.135 69.2267 309.206 68.5006 309.1C67.7782 309.007 67.1571 308.738 66.6371 308.293C66.1336 307.858 65.7536 307.274 65.4969 306.544L66.7824 306.166C67.0872 306.965 67.5594 307.507 68.199 307.792C68.8387 308.076 69.6125 308.085 70.5207 307.817C71.5312 307.52 72.215 307.034 72.5724 306.359C72.9334 305.697 72.9691 304.873 72.6792 303.888L72.0525 301.759C71.9526 302.552 71.6667 303.234 71.195 303.804C70.7361 304.37 70.1294 304.764 69.3747 304.986C68.5305 305.234 67.7265 305.241 66.9628 305.008C66.199 304.774 65.5252 304.326 64.9412 303.664C64.3534 302.989 63.909 302.14 63.6079 301.116C63.3068 300.093 63.2159 299.147 63.3355 298.278C63.4678 297.405 63.7916 296.664 64.3069 296.053C64.8222 295.443 65.502 295.014 66.3462 294.765C67.1136 294.539 67.8518 294.545 68.5606 294.781C69.2822 295.013 69.9185 295.451 70.4693 296.095L69.837 293.946L71.0841 293.579L73.9918 303.46C74.3795 304.778 74.295 305.908 73.7383 306.85C73.1982 307.801 72.2375 308.48 70.856 308.886ZM64.9509 300.721C65.316 301.962 65.8771 302.853 66.6341 303.395C67.4039 303.933 68.2685 304.06 69.2278 303.778C69.8673 303.59 70.3703 303.268 70.7367 302.813C71.1158 302.354 71.355 301.797 71.4542 301.142C71.5497 300.475 71.4826 299.751 71.253 298.971C70.8917 297.743 70.316 296.849 69.5258 296.29C68.7447 295.713 67.8681 295.568 66.896 295.854C65.9367 296.137 65.2791 296.712 64.9234 297.581C64.5804 298.447 64.5896 299.493 64.9509 300.721ZM78.3213 302.436L76.9782 302.832L74.0028 292.721L75.2499 292.354L75.8089 294.253C75.9622 293.499 76.2658 292.854 76.7194 292.317C77.1858 291.777 77.7772 291.401 78.4935 291.191C79.2865 290.957 80.0183 290.964 80.6887 291.212C81.372 291.455 81.9251 291.918 82.348 292.6C82.4442 291.793 82.7372 291.088 83.2269 290.486C83.7167 289.883 84.3581 289.465 85.1511 289.231C86.2 288.923 87.1228 289.013 87.9197 289.501C88.7256 289.972 89.3017 290.797 89.648 291.973L91.579 298.535L90.2551 298.925L88.454 292.804C88.168 291.832 87.7322 291.154 87.1468 290.771C86.5704 290.37 85.8728 290.291 85.0542 290.532C84.5426 290.682 84.1171 290.96 83.7778 291.366C83.4348 291.759 83.2069 292.236 83.0941 292.797C82.9903 293.342 83.0307 293.928 83.2151 294.554L84.9597 300.483L83.6167 300.878L81.8156 294.758C81.5295 293.786 81.1002 293.106 80.5275 292.718C79.9511 292.318 79.2472 292.24 78.4158 292.485C77.9042 292.636 77.4723 292.916 77.1202 293.325C76.7772 293.718 76.5556 294.193 76.4556 294.751C76.3519 295.295 76.3922 295.881 76.5767 296.508L78.3213 302.436ZM100.62 295.875L100.078 294.033C99.9678 294.746 99.6733 295.375 99.1941 295.919C98.7111 296.45 98.0731 296.833 97.2801 297.066C96.2312 297.375 95.3144 297.352 94.5295 297C93.7409 296.634 93.213 295.997 92.9458 295.089C92.656 294.104 92.8278 293.248 93.4612 292.519C94.0909 291.778 95.1732 291.181 96.7081 290.73C97.0151 290.639 97.3175 290.557 97.6155 290.484C97.9134 290.41 98.313 290.327 98.8141 290.235L98.56 289.372C98.3116 288.527 97.9003 287.933 97.3261 287.587C96.7648 287.238 96.1004 287.177 95.3329 287.403C94.5143 287.644 93.9335 288.079 93.5905 288.708C93.2437 289.324 93.1843 290.043 93.4124 290.866L92.1845 291.227C91.9752 290.469 91.9559 289.765 92.1267 289.118C92.2936 288.457 92.6197 287.888 93.1049 287.412C93.5992 286.919 94.2301 286.56 94.9975 286.334C96.1871 285.984 97.204 286.039 98.0483 286.499C98.8926 286.96 99.4879 287.778 99.8342 288.955L101.771 295.536L100.62 295.875ZM94.22 294.672C94.4006 295.286 94.7649 295.721 95.3127 295.977C95.8567 296.22 96.4805 296.238 97.184 296.031C98.1305 295.752 98.796 295.251 99.1804 294.526C99.561 293.789 99.612 292.947 99.3335 292L99.0681 291.098C98.622 291.188 98.2371 291.274 97.9136 291.355C97.6028 291.432 97.3067 291.513 97.0253 291.595C95.887 291.93 95.0808 292.355 94.6068 292.87C94.1419 293.368 94.0129 293.969 94.22 294.672ZM109.949 293.129L108.606 293.525L104.552 279.749L105.895 279.354L109.949 293.129ZM116.964 291.274C116.273 291.477 115.596 291.537 114.932 291.454C114.268 291.372 113.649 291.158 113.075 290.813C112.514 290.463 112.018 290.005 111.586 289.437C111.168 288.865 110.846 288.195 110.62 287.428C110.398 286.673 110.308 285.942 110.35 285.235C110.405 284.524 110.575 283.876 110.862 283.292C111.158 282.69 111.562 282.175 112.075 281.746C112.588 281.317 113.19 281.001 113.881 280.798C114.584 280.591 115.268 280.529 115.932 280.611C116.595 280.694 117.208 280.91 117.769 281.259C118.339 281.591 118.834 282.044 119.252 282.615C119.684 283.183 120.01 283.845 120.232 284.599C120.458 285.367 120.544 286.106 120.489 286.817C120.447 287.524 120.278 288.179 119.982 288.78C119.699 289.377 119.301 289.891 118.788 290.32C118.275 290.749 117.667 291.067 116.964 291.274ZM116.625 290.122C117.29 289.927 117.829 289.587 118.243 289.104C118.666 288.604 118.934 288.004 119.048 287.304C119.174 286.6 119.115 285.832 118.87 285C118.625 284.169 118.261 283.498 117.777 282.987C117.306 282.472 116.759 282.126 116.137 281.948C115.528 281.766 114.89 281.773 114.225 281.968C113.573 282.16 113.033 282.5 112.607 282.987C112.193 283.47 111.921 284.057 111.791 284.748C111.674 285.436 111.738 286.196 111.982 287.027C112.227 287.859 112.587 288.538 113.061 289.065C113.549 289.589 114.1 289.948 114.713 290.143C115.335 290.321 115.972 290.314 116.625 290.122ZM128.409 276.71L127.49 287.968L126.089 288.38L119.257 279.403L120.696 278.98L126.374 286.586L127.028 277.117L128.409 276.71ZM136.673 285.474C135.726 285.752 134.831 285.779 133.986 285.555C133.151 285.315 132.417 284.85 131.783 284.161C131.162 283.468 130.696 282.591 130.383 281.529C130.093 280.544 130.034 279.609 130.204 278.725C130.384 277.825 130.753 277.049 131.312 276.398C131.88 275.73 132.612 275.265 133.507 275.001C134.224 274.791 134.911 274.741 135.569 274.853C136.237 274.949 136.842 275.188 137.386 275.57C137.942 275.948 138.415 276.448 138.807 277.069C139.207 277.674 139.496 278.396 139.673 279.233L131.231 281.717L130.96 280.796L138.001 278.724C137.615 277.601 137.048 276.809 136.301 276.348C135.563 275.87 134.727 275.768 133.793 276.043C133.141 276.235 132.616 276.577 132.219 277.069C131.831 277.545 131.586 278.131 131.485 278.828C131.385 279.525 131.459 280.295 131.707 281.139C131.963 282.009 132.321 282.731 132.782 283.304C133.239 283.864 133.767 284.244 134.368 284.442C134.981 284.637 135.639 284.631 136.343 284.424C137.187 284.176 137.818 283.747 138.237 283.137C138.664 282.511 138.844 281.777 138.777 280.935L140.101 280.546C140.198 281.726 139.94 282.761 139.326 283.651C138.721 284.523 137.837 285.131 136.673 285.474ZM143.038 277.513L144.63 282.924L143.287 283.319L140.311 273.208L141.559 272.841L142.236 275.143C142.376 274.296 142.725 273.547 143.284 272.896C143.843 272.245 144.538 271.797 145.37 271.552L145.782 272.953C145.071 273.134 144.467 273.444 143.971 273.882C143.487 274.316 143.156 274.845 142.978 275.467C142.799 276.089 142.819 276.771 143.038 277.513Z" fill="black"/>
</g>
<g filter="url(#filter5_d_378_4405)">
<rect x="216" y="351" width="164" height="48" rx="20" fill="white" shape-rendering="crispEdges"/>
<path d="M249.217 383.18C248.324 383.18 247.53 383.02 246.837 382.7C246.157 382.367 245.624 381.907 245.237 381.32C244.864 380.733 244.664 380.053 244.637 379.28H245.997C246.037 380.107 246.344 380.773 246.917 381.28C247.504 381.787 248.27 382.04 249.217 382.04C250.19 382.04 250.95 381.793 251.497 381.3C252.057 380.807 252.337 380.133 252.337 379.28C252.337 378.48 252.03 377.84 251.417 377.36C250.804 376.867 249.977 376.62 248.937 376.62H247.597V375.46H248.897C249.457 375.46 249.944 375.353 250.357 375.14C250.784 374.913 251.117 374.607 251.357 374.22C251.597 373.833 251.717 373.387 251.717 372.88C251.717 372.16 251.47 371.573 250.977 371.12C250.497 370.653 249.87 370.42 249.097 370.42C248.31 370.42 247.664 370.653 247.157 371.12C246.664 371.587 246.397 372.207 246.357 372.98H245.017C245.044 372.273 245.237 371.64 245.597 371.08C245.957 370.52 246.444 370.08 247.057 369.76C247.684 369.44 248.377 369.28 249.137 369.28C249.937 369.28 250.637 369.433 251.237 369.74C251.837 370.033 252.304 370.447 252.637 370.98C252.984 371.5 253.157 372.113 253.157 372.82C253.157 373.513 252.95 374.133 252.537 374.68C252.137 375.213 251.57 375.64 250.837 375.96C251.77 376.187 252.49 376.587 252.997 377.16C253.517 377.733 253.777 378.433 253.777 379.26C253.777 380.033 253.584 380.713 253.197 381.3C252.81 381.887 252.277 382.347 251.597 382.68C250.917 383.013 250.124 383.18 249.217 383.18ZM260.682 383H256.602V368.64H260.682C262.216 368.64 263.516 368.947 264.582 369.56C265.649 370.16 266.456 370.993 267.002 372.06C267.549 373.127 267.822 374.36 267.822 375.76C267.822 377.147 267.542 378.387 266.982 379.48C266.422 380.56 265.602 381.42 264.522 382.06C263.456 382.687 262.176 383 260.682 383ZM258.102 369.94V381.7H260.642C261.869 381.7 262.902 381.453 263.742 380.96C264.582 380.467 265.216 379.773 265.642 378.88C266.082 377.987 266.302 376.947 266.302 375.76C266.302 374.573 266.082 373.547 265.642 372.68C265.216 371.8 264.582 371.127 263.742 370.66C262.902 370.18 261.869 369.94 260.642 369.94H258.102ZM275.715 383H274.315V372.46H275.615V374.44C275.975 373.76 276.448 373.227 277.035 372.84C277.635 372.453 278.308 372.26 279.055 372.26C279.882 372.26 280.582 372.473 281.155 372.9C281.742 373.327 282.142 373.927 282.355 374.7C282.675 373.953 283.155 373.36 283.795 372.92C284.435 372.48 285.168 372.26 285.995 372.26C287.088 372.26 287.948 372.607 288.575 373.3C289.215 373.98 289.535 374.933 289.535 376.16V383H288.155V376.62C288.155 375.607 287.928 374.833 287.475 374.3C287.035 373.753 286.388 373.48 285.535 373.48C285.002 373.48 284.515 373.627 284.075 373.92C283.635 374.2 283.282 374.593 283.015 375.1C282.762 375.593 282.635 376.167 282.635 376.82V383H281.235V376.62C281.235 375.607 281.015 374.833 280.575 374.3C280.135 373.753 279.482 373.48 278.615 373.48C278.082 373.48 277.588 373.627 277.135 373.92C276.695 374.2 276.348 374.593 276.095 375.1C275.842 375.593 275.715 376.167 275.715 376.82V383ZM296.699 383.2C295.979 383.2 295.312 383.067 294.699 382.8C294.086 382.533 293.552 382.153 293.099 381.66C292.659 381.167 292.312 380.587 292.059 379.92C291.819 379.253 291.699 378.52 291.699 377.72C291.699 376.933 291.819 376.207 292.059 375.54C292.312 374.873 292.659 374.3 293.099 373.82C293.552 373.327 294.086 372.947 294.699 372.68C295.312 372.413 295.979 372.28 296.699 372.28C297.432 372.28 298.106 372.413 298.719 372.68C299.332 372.947 299.859 373.327 300.299 373.82C300.752 374.3 301.099 374.873 301.339 375.54C301.592 376.207 301.719 376.933 301.719 377.72C301.719 378.52 301.592 379.253 301.339 379.92C301.099 380.587 300.752 381.167 300.299 381.66C299.859 382.153 299.332 382.533 298.719 382.8C298.106 383.067 297.432 383.2 296.699 383.2ZM296.699 382C297.392 382 298.006 381.827 298.539 381.48C299.086 381.12 299.512 380.62 299.819 379.98C300.139 379.34 300.299 378.587 300.299 377.72C300.299 376.853 300.139 376.107 299.819 375.48C299.512 374.853 299.086 374.367 298.539 374.02C298.006 373.673 297.392 373.5 296.699 373.5C296.019 373.5 295.406 373.673 294.859 374.02C294.326 374.367 293.899 374.853 293.579 375.48C293.272 376.107 293.119 376.853 293.119 377.72C293.119 378.587 293.272 379.34 293.579 379.98C293.899 380.62 294.326 381.12 294.859 381.48C295.406 381.827 296.019 382 296.699 382ZM303.203 377.72C303.203 376.64 303.39 375.693 303.763 374.88C304.15 374.053 304.69 373.413 305.383 372.96C306.076 372.493 306.896 372.26 307.843 372.26C308.63 372.26 309.343 372.473 309.983 372.9C310.623 373.313 311.116 373.9 311.463 374.66V368.64H312.863V383H311.563V380.78C311.19 381.54 310.676 382.133 310.023 382.56C309.383 382.987 308.656 383.2 307.843 383.2C306.896 383.2 306.076 382.973 305.383 382.52C304.69 382.053 304.15 381.407 303.763 380.58C303.39 379.753 303.203 378.8 303.203 377.72ZM304.623 377.72C304.623 379.067 304.936 380.113 305.563 380.86C306.19 381.607 307.016 381.98 308.043 381.98C308.736 381.98 309.336 381.807 309.843 381.46C310.363 381.113 310.763 380.62 311.043 379.98C311.336 379.327 311.483 378.56 311.483 377.68C311.483 376.8 311.33 376.047 311.023 375.42C310.73 374.793 310.323 374.313 309.803 373.98C309.296 373.647 308.71 373.48 308.043 373.48C307.016 373.48 306.19 373.853 305.563 374.6C304.936 375.347 304.623 376.387 304.623 377.72ZM320.037 383.2C319.05 383.2 318.184 382.973 317.437 382.52C316.704 382.053 316.13 381.4 315.717 380.56C315.317 379.72 315.117 378.747 315.117 377.64C315.117 376.613 315.324 375.7 315.737 374.9C316.164 374.087 316.737 373.447 317.457 372.98C318.19 372.5 319.024 372.26 319.957 372.26C320.704 372.26 321.377 372.407 321.977 372.7C322.59 372.98 323.104 373.38 323.517 373.9C323.944 374.42 324.257 375.033 324.457 375.74C324.67 376.433 324.744 377.207 324.677 378.06H315.877V377.1H323.217C323.164 375.913 322.844 374.993 322.257 374.34C321.684 373.673 320.91 373.34 319.937 373.34C319.257 373.34 318.657 373.52 318.137 373.88C317.63 374.227 317.23 374.72 316.937 375.36C316.644 376 316.497 376.76 316.497 377.64C316.497 378.547 316.637 379.34 316.917 380.02C317.197 380.687 317.597 381.2 318.117 381.56C318.65 381.92 319.284 382.1 320.017 382.1C320.897 382.1 321.624 381.867 322.197 381.4C322.784 380.92 323.164 380.267 323.337 379.44H324.717C324.477 380.6 323.937 381.52 323.097 382.2C322.27 382.867 321.25 383.2 320.037 383.2ZM328.391 383H326.991V368.64H328.391V383ZM332.824 383H331.424V368.64H332.824V383ZM339.998 383.2C339.011 383.2 338.145 382.973 337.398 382.52C336.665 382.053 336.091 381.4 335.678 380.56C335.278 379.72 335.078 378.747 335.078 377.64C335.078 376.613 335.285 375.7 335.698 374.9C336.125 374.087 336.698 373.447 337.418 372.98C338.151 372.5 338.985 372.26 339.918 372.26C340.665 372.26 341.338 372.407 341.938 372.7C342.551 372.98 343.065 373.38 343.478 373.9C343.905 374.42 344.218 375.033 344.418 375.74C344.631 376.433 344.705 377.207 344.638 378.06H335.838V377.1H343.178C343.125 375.913 342.805 374.993 342.218 374.34C341.645 373.673 340.871 373.34 339.898 373.34C339.218 373.34 338.618 373.52 338.098 373.88C337.591 374.227 337.191 374.72 336.898 375.36C336.605 376 336.458 376.76 336.458 377.64C336.458 378.547 336.598 379.34 336.878 380.02C337.158 380.687 337.558 381.2 338.078 381.56C338.611 381.92 339.245 382.1 339.978 382.1C340.858 382.1 341.585 381.867 342.158 381.4C342.745 380.92 343.125 380.267 343.298 379.44H344.678C344.438 380.6 343.898 381.52 343.058 382.2C342.231 382.867 341.211 383.2 339.998 383.2ZM348.352 377.36V383H346.952V372.46H348.252V374.86C348.625 374.087 349.172 373.467 349.892 373C350.612 372.533 351.405 372.3 352.272 372.3V373.76C351.538 373.733 350.872 373.86 350.272 374.14C349.685 374.42 349.218 374.833 348.872 375.38C348.525 375.927 348.352 376.587 348.352 377.36Z" fill="black"/>
<rect x="217.5" y="352.5" width="161" height="45" rx="18.5" stroke="#CBD3FF" stroke-width="3" shape-rendering="crispEdges"/>
</g>
<defs>
<filter id="filter0_i_378_4405" x="1" y="0" width="388" height="409" filterUnits="userSpaceOnUse" color-interpolation-filters="sRGB">
<feFlood flood-opacity="0" result="BackgroundImageFix"/>
<feBlend mode="normal" in="SourceGraphic" in2="BackgroundImageFix" result="shape"/>
<feColorMatrix in="SourceAlpha" type="matrix" values="0 0 0 0 0 0 0 0 0 0 0 0 0 0 0 0 0 0 127 0" result="hardAlpha"/>
<feOffset dx="1" dy="3"/>
<feGaussianBlur stdDeviation="7.5"/>
<feComposite in2="hardAlpha" operator="arithmetic" k2="-1" k3="1"/>
<feColorMatrix type="matrix" values="0 0 0 0 0.833333 0 0 0 0 0.833333 0 0 0 0 0.833333 0 0 0 0.15 0"/>
<feBlend mode="normal" in2="shape" result="effect1_innerShadow_378_4405"/>
</filter>
<filter id="filter1_d_378_4405" x="-2" y="294" width="272.082" height="96.7041" filterUnits="userSpaceOnUse" color-interpolation-filters="sRGB">
<feFlood flood-opacity="0" result="BackgroundImageFix"/>
<feColorMatrix in="SourceAlpha" type="matrix" values="0 0 0 0 0 0 0 0 0 0 0 0 0 0 0 0 0 0 127 0" result="hardAlpha"/>
<feOffset dy="1"/>
<feGaussianBlur stdDeviation="2.5"/>
<feComposite in2="hardAlpha" operator="out"/>
<feColorMatrix type="matrix" values="0 0 0 0 1 0 0 0 0 1 0 0 0 0 1 0 0 0 0.25 0"/>
<feBlend mode="normal" in2="BackgroundImageFix" result="effect1_dropShadow_378_4405"/>
<feBlend mode="normal" in="SourceGraphic" in2="effect1_dropShadow_378_4405" result="shape"/>
</filter>
<filter id="filter2_d_378_4405" x="72" y="184.818" width="183.983" height="74.6895" filterUnits="userSpaceOnUse" color-interpolation-filters="sRGB">
<feFlood flood-opacity="0" result="BackgroundImageFix"/>
<feColorMatrix in="SourceAlpha" type="matrix" values="0 0 0 0 0 0 0 0 0 0 0 0 0 0 0 0 0 0 127 0" result="hardAlpha"/>
<feOffset dy="1"/>
<feGaussianBlur stdDeviation="2.5"/>
<feComposite in2="hardAlpha" operator="out"/>
<feColorMatrix type="matrix" values="0 0 0 0 1 0 0 0 0 1 0 0 0 0 1 0 0 0 0.25 0"/>
<feBlend mode="normal" in2="BackgroundImageFix" result="effect1_dropShadow_378_4405"/>
<feBlend mode="normal" in="SourceGraphic" in2="effect1_dropShadow_378_4405" result="shape"/>
</filter>
<filter id="filter3_d_378_4405" x="167.773" y="236.817" width="224.162" height="88.5479" filterUnits="userSpaceOnUse" color-interpolation-filters="sRGB">
<feFlood flood-opacity="0" result="BackgroundImageFix"/>
<feColorMatrix in="SourceAlpha" type="matrix" values="0 0 0 0 0 0 0 0 0 0 0 0 0 0 0 0 0 0 127 0" result="hardAlpha"/>
<feOffset dy="1"/>
<feGaussianBlur stdDeviation="2.5"/>
<feComposite in2="hardAlpha" operator="out"/>
<feColorMatrix type="matrix" values="0 0 0 0 1 0 0 0 0 1 0 0 0 0 1 0 0 0 0.25 0"/>
<feBlend mode="normal" in2="BackgroundImageFix" result="effect1_dropShadow_378_4405"/>
<feBlend mode="normal" in="SourceGraphic" in2="effect1_dropShadow_378_4405" result="shape"/>
</filter>
<filter id="filter4_d_378_4405" x="10" y="239" width="174.189" height="101.146" filterUnits="userSpaceOnUse" color-interpolation-filters="sRGB">
<feFlood flood-opacity="0" result="BackgroundImageFix"/>
<feColorMatrix in="SourceAlpha" type="matrix" values="0 0 0 0 0 0 0 0 0 0 0 0 0 0 0 0 0 0 127 0" result="hardAlpha"/>
<feOffset dy="1"/>
<feGaussianBlur stdDeviation="2.5"/>
<feComposite in2="hardAlpha" operator="out"/>
<feColorMatrix type="matrix" values="0 0 0 0 1 0 0 0 0 1 0 0 0 0 1 0 0 0 0.25 0"/>
<feBlend mode="normal" in2="BackgroundImageFix" result="effect1_dropShadow_378_4405"/>
<feBlend mode="normal" in="SourceGraphic" in2="effect1_dropShadow_378_4405" result="shape"/>
</filter>
<filter id="filter5_d_378_4405" x="211" y="347" width="174" height="58" filterUnits="userSpaceOnUse" color-interpolation-filters="sRGB">
<feFlood flood-opacity="0" result="BackgroundImageFix"/>
<feColorMatrix in="SourceAlpha" type="matrix" values="0 0 0 0 0 0 0 0 0 0 0 0 0 0 0 0 0 0 127 0" result="hardAlpha"/>
<feOffset dy="1"/>
<feGaussianBlur stdDeviation="2.5"/>
<feComposite in2="hardAlpha" operator="out"/>
<feColorMatrix type="matrix" values="0 0 0 0 1 0 0 0 0 1 0 0 0 0 1 0 0 0 0.25 0"/>
<feBlend mode="normal" in2="BackgroundImageFix" result="effect1_dropShadow_378_4405"/>
<feBlend mode="normal" in="SourceGraphic" in2="effect1_dropShadow_378_4405" result="shape"/>
</filter>
</defs>
</svg>
